<?xml version="1.0" standalone="no"?><!DOCTYPE svg PUBLIC "-//W3C//DTD SVG 1.1//EN" "http://www.w3.org/Graphics/SVG/1.1/DTD/svg11.dtd"><svg t="1613120248372" class="icon" viewBox="0 0 1024 1024" version="1.1" xmlns="http://www.w3.org/2000/svg" p-id="6777" xmlns:xlink="http://www.w3.org/1999/xlink" width="32" height="32"><defs><style type="text/css"></style></defs><path d="M896 533.333333a235.52 235.52 0 0 0-149.76-218.453333 234.24 234.24 0 0 0-469.333333 0A234.666667 234.666667 0 0 0 362.666667 768h8.533333a294.826667 294.826667 0 0 1-52.906667 101.973333A42.666667 42.666667 0 0 0 351.573333 938.666667h320.853334a42.666667 42.666667 0 0 0 33.28-69.546667A294.826667 294.826667 0 0 1 652.8 768h8.533333a235.093333 235.093333 0 0 0 234.666667-234.666667zM429.226667 853.333333a379.306667 379.306667 0 0 0 34.56-109.226666 233.386667 233.386667 0 0 0 48.213333-29.866667 233.386667 233.386667 0 0 0 48.213333 29.866667 379.306667 379.306667 0 0 0 34.56 109.226666z m116.053333-226.133333l-3.413333-3.413333-3.413334-3.413334h-2.986666l-7.68-3.84-7.68-2.56h-16.213334l-7.68 2.56a23.893333 23.893333 0 0 0-7.253333 3.84h-3.413333l-3.413334 3.413334-3.413333 3.413333a149.333333 149.333333 0 1 1-148.053333-239.786667A47.36 47.36 0 0 0 337.493333 384a60.586667 60.586667 0 0 0 7.68-3.413333 35.413333 35.413333 0 0 0 5.973334-5.546667 26.453333 26.453333 0 0 0 8.96-13.226667 26.026667 26.026667 0 0 0 2.986666-7.253333 29.44 29.44 0 0 0 0-8.533333 42.666667 42.666667 0 0 0 0-7.253334 145.066667 145.066667 0 0 1 0-19.2 149.333333 149.333333 0 0 1 298.666667 0 145.066667 145.066667 0 0 1 0 19.2 34.56 34.56 0 0 0 0 6.826667 31.573333 31.573333 0 0 0 0 8.96 26.026667 26.026667 0 0 0 2.986667 7.253333 26.453333 26.453333 0 0 0 8.96 13.226667 35.413333 35.413333 0 0 0 5.973333 5.546667 60.586667 60.586667 0 0 0 7.68 3.413333 47.36 47.36 0 0 0 6.826667 2.986667 149.333333 149.333333 0 1 1-148.053334 239.786666z" p-id="6778"></path></svg>