<?xml version="1.0" standalone="no"?><!DOCTYPE svg PUBLIC "-//W3C//DTD SVG 1.1//EN" "http://www.w3.org/Graphics/SVG/1.1/DTD/svg11.dtd"><svg t="1613120176004" class="icon" viewBox="0 0 1024 1024" version="1.1" xmlns="http://www.w3.org/2000/svg" p-id="1147" width="32" height="32" xmlns:xlink="http://www.w3.org/1999/xlink"><defs><style type="text/css"></style></defs><path d="M853.333333 441.6l-246.613333-316.16A130.56 130.56 0 0 0 416 128L170.666667 441.6A130.133333 130.133333 0 0 0 149.76 512 131.84 131.84 0 0 0 170.666667 579.413333l2.56 2.986667 244.906666 316.16A128 128 0 0 0 512 938.666667a130.56 130.56 0 0 0 96.426667-42.666667L853.333333 582.4a128 128 0 0 0-2.56-140.8z m-66.986666 91.306667l-241.92 308.053333a47.36 47.36 0 0 1-60.586667 2.986667l-242.773333-311.893334a42.666667 42.666667 0 0 1-5.973334-20.053333 47.36 47.36 0 0 1 4.266667-19.2l241.92-308.053333a47.36 47.36 0 0 1 60.586667-2.986667l240.213333 310.613333a42.666667 42.666667 0 0 1 6.826667 23.04 47.36 47.36 0 0 1-4.266667 17.493334z" p-id="1148"></path></svg>