<?xml version="1.0" standalone="no"?><!DOCTYPE svg PUBLIC "-//W3C//DTD SVG 1.1//EN" "http://www.w3.org/Graphics/SVG/1.1/DTD/svg11.dtd"><svg t="1613120195072" class="icon" viewBox="0 0 1024 1024" version="1.1" xmlns="http://www.w3.org/2000/svg" p-id="3603" xmlns:xlink="http://www.w3.org/1999/xlink" width="32" height="32"><defs><style type="text/css"></style></defs><path d="M862.08 204.416a253.354667 253.354667 0 0 0-179.584-74.837333A251.989333 251.989333 0 0 0 512 196.053333a251.904 251.904 0 0 0-170.496-66.474666 253.525333 253.525333 0 0 0-179.754667 75.008c-100.394667 100.821333-100.352 258.517333 0.085334 358.912l312.832 312.832c7.253333 12.757333 21.248 20.992 37.333333 20.992a42.24 42.24 0 0 0 33.792-17.450667l316.373333-316.373333c100.437333-100.394667 100.48-258.090667-0.085333-359.082667z m-60.245333 298.752L512 793.002667l-289.834667-289.834667c-66.645333-66.688-66.602667-171.392-0.085333-238.250667 32.426667-32.256 74.837333-50.005333 119.424-50.005333s86.826667 17.749333 118.997333 49.92l21.333334 21.333333a42.624 42.624 0 0 0 60.330666 0l21.333334-21.333333c64.512-64.384 173.824-64.213333 238.250666-0.085333 66.688 67.029333 66.730667 171.733333 0.085334 238.421333z" fill="" p-id="3604"></path></svg>