<?xml version="1.0" standalone="no"?><!DOCTYPE svg PUBLIC "-//W3C//DTD SVG 1.1//EN" "http://www.w3.org/Graphics/SVG/1.1/DTD/svg11.dtd"><svg t="1613120232098" class="icon" viewBox="0 0 1024 1024" version="1.1" xmlns="http://www.w3.org/2000/svg" p-id="5086" xmlns:xlink="http://www.w3.org/1999/xlink" width="32" height="32"><defs><style type="text/css"></style></defs><path d="M898.56 523.946667a242.773333 242.773333 0 0 0-71.253333-170.666667L597.333333 119.893333a120.746667 120.746667 0 0 0-170.666666 0L196.693333 351.146667a242.773333 242.773333 0 0 0-71.253333 170.666666A243.2 243.2 0 0 0 369.493333 768a293.546667 293.546667 0 0 1-52.48 101.12A42.666667 42.666667 0 0 0 351.573333 938.666667h320.853334a42.666667 42.666667 0 0 0 33.28-69.546667A291.84 291.84 0 0 1 653.226667 768a242.773333 242.773333 0 0 0 245.333333-243.626667zM768 636.16a161.28 161.28 0 0 1-156.16 40.533333 42.666667 42.666667 0 0 0-7.253333 0h-8.533334a60.16 60.16 0 0 0-9.386666 2.56h-6.4a29.44 29.44 0 0 0-5.546667 4.693334 32 32 0 0 0-7.253333 5.973333 25.6 25.6 0 0 1-2.56 4.693333 107.946667 107.946667 0 0 0-5.12 9.813334 46.933333 46.933333 0 0 0 0 7.68v7.68a377.173333 377.173333 0 0 0 34.986666 133.546666h-165.546666a367.786667 367.786667 0 0 0 37.546666-128v-8.106666a46.933333 46.933333 0 0 0 0-7.68 47.786667 47.786667 0 0 0-5.546666-10.24 22.613333 22.613333 0 0 0-2.56-4.266667 23.04 23.04 0 0 0-6.826667-5.973333 54.186667 54.186667 0 0 0-5.546667-4.693334h-5.973333a37.546667 37.546667 0 0 0-9.813333-2.986666H422.4a46.933333 46.933333 0 0 0-7.68 0A162.56 162.56 0 0 1 256 636.16a160 160 0 0 1-46.506667-112.213333A157.44 157.44 0 0 1 256 411.733333l230.4-231.253333a34.56 34.56 0 0 1 48.213333 0L768 411.733333a157.44 157.44 0 0 1 46.506667 112.213334A161.28 161.28 0 0 1 768 636.16z" p-id="5087"></path></svg>